<svg xmlns="http://www.w3.org/2000/svg" viewBox="0 0 64 64" fill="none">
  <defs>
    <linearGradient id="bg" x1="8" y1="6" x2="56" y2="58" gradientUnits="userSpaceOnUse">
      <stop stop-color="#182435"/>
      <stop offset="1" stop-color="#090D15"/>
    </linearGradient>
    <linearGradient id="goldFrame" x1="10" y1="8" x2="54" y2="56" gradientUnits="userSpaceOnUse">
      <stop stop-color="#F6DDAF"/>
      <stop offset=".42" stop-color="#F0C777"/>
      <stop offset="1" stop-color="#A56B1F"/>
    </linearGradient>
    <linearGradient id="wood" x1="22" y1="13" x2="42" y2="50" gradientUnits="userSpaceOnUse">
      <stop stop-color="#E1A94A"/>
      <stop offset=".45" stop-color="#C8892B"/>
      <stop offset="1" stop-color="#7C4B15"/>
    </linearGradient>
    <linearGradient id="mark" x1="28.5" y1="23.5" x2="41" y2="40.5" gradientUnits="userSpaceOnUse">
      <stop stop-color="#FFF7DE"/>
      <stop offset="1" stop-color="#F1D089"/>
    </linearGradient>
    <radialGradient id="flare" cx="0" cy="0" r="1" gradientUnits="userSpaceOnUse" gradientTransform="translate(46 16) rotate(90) scale(12)">
      <stop stop-color="#F5D48B"/>
      <stop offset="1" stop-color="#F5D48B" stop-opacity="0"/>
    </radialGradient>
  </defs>

  <rect x="4" y="4" width="56" height="56" rx="18" fill="url(#bg)"/>
  <rect x="4.75" y="4.75" width="54.5" height="54.5" rx="17.25" stroke="url(#goldFrame)" stroke-width="1.5"/>
  <circle cx="46" cy="16" r="12" fill="url(#flare)" opacity=".34"/>

  <path d="M24.5 14.5C27 12.7 37 12.7 39.5 14.5C42.3 16.5 43.5 23 43.5 32C43.5 41 42.3 47.5 39.5 49.5C37 51.3 27 51.3 24.5 49.5C21.7 47.5 20.5 41 20.5 32C20.5 23 21.7 16.5 24.5 14.5Z" fill="url(#wood)" stroke="url(#goldFrame)" stroke-width="1.4"/>
  <path d="M22.2 22.1C26.7 24.1 37.3 24.1 41.8 22.1" stroke="#1B130B" stroke-width="1.6" stroke-linecap="round" opacity=".88"/>
  <path d="M21.9 32C26.4 33.7 37.6 33.7 42.1 32" stroke="#1B130B" stroke-width="1.6" stroke-linecap="round" opacity=".76"/>
  <path d="M22.2 41.9C26.7 39.9 37.3 39.9 41.8 41.9" stroke="#1B130B" stroke-width="1.6" stroke-linecap="round" opacity=".88"/>
  <rect x="21.7" y="18.4" width="20.6" height="3.8" rx="1.9" fill="#171108" opacity=".94"/>
  <rect x="21.7" y="41.8" width="20.6" height="3.8" rx="1.9" fill="#171108" opacity=".94"/>

  <path d="M29 23.5V40.5M29 23.5H35.5C38.4 23.5 39.9 25 39.9 27.4C39.9 29.8 38.3 31 35.3 31H29M29 31H35.8C39.1 31 40.8 32.7 40.8 35.4C40.8 38.2 38.9 40.5 35.3 40.5H29" stroke="url(#mark)" stroke-width="3.2" stroke-linecap="round" stroke-linejoin="round"/>
  <path d="M21.4 14.7C24.8 16.9 39.2 16.9 42.6 14.7" stroke="#F0C777" stroke-width="1.2" stroke-linecap="round" opacity=".62"/>
</svg>
